<svg width="32" height="32" viewBox="0 0 32 32" fill="none" xmlns="http://www.w3.org/2000/svg">
<rect width="32" height="32" rx="16" fill="#202020"/>
<path d="M20.554 10.4706C20.8071 10.2175 21.2175 10.2175 21.4706 10.4706C21.7238 10.7238 21.7238 11.1342 21.4706 11.3873L11.3874 21.4705C11.1343 21.7236 10.7239 21.7236 10.4708 21.4705C10.2176 21.2174 10.2176 20.807 10.4708 20.5538L20.554 10.4706Z" fill="white"/>
<path d="M10.4708 11.3873C10.2176 11.1342 10.2176 10.7238 10.4708 10.4706C10.7239 10.2175 11.1343 10.2175 11.3874 10.4706L21.4706 20.5538C21.7238 20.807 21.7238 21.2174 21.4706 21.4705C21.2175 21.7236 20.8071 21.7236 20.554 21.4705L10.4708 11.3873Z" fill="white"/>
</svg>
