<svg width="18" height="18" viewBox="0 0 18 18" fill="none" xmlns="http://www.w3.org/2000/svg">
<path d="M16.0711 0.514716C16.4616 0.124192 17.0948 0.124192 17.4853 0.514715C17.8758 0.905239 17.8758 1.5384 17.4853 1.92893L1.92893 17.4853C1.53841 17.8758 0.905243 17.8758 0.514719 17.4853C0.124195 17.0948 0.124195 16.4616 0.514719 16.0711L16.0711 0.514716Z" fill="white"/>
<path d="M0.514719 1.92893C0.124195 1.53841 0.124195 0.905239 0.514719 0.514715C0.905243 0.124191 1.53841 0.124191 1.92893 0.514715L17.4853 16.0711C17.8758 16.4616 17.8758 17.0948 17.4853 17.4853C17.0948 17.8758 16.4616 17.8758 16.0711 17.4853L0.514719 1.92893Z" fill="white"/>
</svg>
